STARTFONT 2.1
COMMENT  
COMMENT  (c) Copyright 1994 by Star Division GmbH
COMMENT  
COMMENT  WARNING:  This bdf file was generated from a font server using
COMMENT  fstobdf.  The resulting font is subject to the same copyright,
COMMENT  license, and trademark restrictions as the original font.  The
COMMENT  authors and distributors of fstobdf disclaim all liability for
COMMENT  misuse of the program or its output.
COMMENT  
FONT -Star Division-starmath-medium-r-normal--15-140-75-75-p-0-iso8859-1
SIZE 14 75 75
FONTBOUNDINGBOX 28 19 -3 -6
STARTPROPERTIES 54
FONT "-Star Division-starmath-medium-r-normal--15-140-75-75-p-0-iso8859-1"
FONT_TYPE "TrueType"
TECHNOLOGY "TrueType"
FOUNDRY ""
FAMILY_NAME "starmath"
WEIGHT_NAME "medium"
SLANT "r"
SETWIDTH_NAME "normal"
ADD_STYLE_NAME ""
PIXEL_SIZE 14
POINT_SIZE 140
RESOLUTION_X 75
RESOLUTION_Y 75
SPACING "p"
AVERAGE_WIDTH 80
CHARSET_REGISTRY "iso8859"
CHARSET_ENCODING "1"
AVG_LOWERCASE_WIDTH 7
RAW_AVG_LOWERCASE_WIDTH 500
SUBSCRIPT_X 0
SUBSCRIPT_Y 6
SUBSCRIPT_SIZE 7
RAW_SUBSCRIPT_X 0
RAW_SUBSCRIPT_Y 499
RAW_SUBSCRIPT_SIZE 500
SUPERSCRIPT_X 0
SUPERSCRIPT_Y 4
SUPERSCRIPT_SIZE 7
RAW_SUPERSCRIPT_X 0
RAW_SUPERSCRIPT_Y 250
RAW_SUPERSCRIPT_SIZE 500
STRIKEOUT_ASCENT 4
STRIKEOUT_DESCENT -3
RAW_STRIKEOUT_ASCENT 299
RAW_STRIKEOUT_DESCENT -249
RELATIVE_SETWIDTH 50
RELATIVE_WEIGHT 40
_GALLIUM_PANOSE "5 11 5 0 0 0 0 0 0 0"
UNDERLINE_POSITION 0
UNDERLINE_THICKNESS 1
RAW_UNDERLINE_POSITION 99
RAW_UNDERLINE_THICKNESS 50
ITALIC_ANGLE 0
RAW_PIXEL_SIZE 1000
RAW_POINT_SIZE 9636
FONT_ASCENT 13
FONT_DESCENT 5
RAW_ASCENT 863
RAW_DESCENT 325
RAW_AVERAGE_WIDTH 6260
COPYRIGHT "(c) Copyright 1994 by Star Division GmbH"
FACE_NAME "StarMath"
NOTICE "Created by Type-Designer 2.5"
DEFAULT_CHAR 0
ENDPROPERTIES
CHARS 223
STARTCHAR exclam
ENCODING 33
SWIDTH 274 0
DWIDTH 4 0
BBX 2 11 1 0
ATTRIBUTES 0115
BITMAP
c0
c0
c0
c0
c0
c0
c0
c0
00
c0
c0
ENDCHAR
STARTCHAR quotedbl
ENCODING 34
SWIDTH 342 0
DWIDTH 5 0
BBX 5 4 0 7
ATTRIBUTES 0162
BITMAP
d8
d8
d8
d8
ENDCHAR
STARTCHAR numbersign
ENCODING 35
SWIDTH 548 0
DWIDTH 8 0
BBX 8 11 0 0
ATTRIBUTES 022b
BITMAP
12
12
22
ff
24
24
24
ff
44
48
48
ENDCHAR
STARTCHAR dollar
ENCODING 36
SWIDTH 960 0
DWIDTH 14 0
BBX 14 11 0 0
ATTRIBUTES 03c0
BITMAP
0100
6200
9200
9200
9400
6400
0b98
0c64
1464
1464
2398
ENDCHAR
STARTCHAR percent
ENCODING 37
SWIDTH 822 0
DWIDTH 12 0
BBX 11 10 0 0
ATTRIBUTES 0340
BITMAP
6080
9080
9100
9200
6200
04c0
0920
0920
1120
20c0
ENDCHAR
STARTCHAR ampersand
ENCODING 38
SWIDTH 754 0
DWIDTH 11 0
BBX 11 10 0 0
ATTRIBUTES 0309
BITMAP
1c00
1200
3200
15c0
1880
2900
4d00
c600
ef20
71c0
ENDCHAR
STARTCHAR apostrophe
ENCODING 39
SWIDTH 685 0
DWIDTH 10 0
BBX 10 6 0 1
ATTRIBUTES 02c8
BITMAP
6700
d880
8840
8840
9c80
6300
ENDCHAR
STARTCHAR parenleft
ENCODING 40
SWIDTH 342 0
DWIDTH 5 0
BBX 3 17 1 -4
ATTRIBUTES 0153
BITMAP
20
20
40
40
40
80
80
80
80
80
80
80
40
40
20
20
20
ENDCHAR
STARTCHAR parenright
ENCODING 41
SWIDTH 342 0
DWIDTH 5 0
BBX 3 17 1 -4
ATTRIBUTES 0153
BITMAP
80
80
40
40
20
20
20
20
20
20
20
20
20
40
40
80
80
ENDCHAR
STARTCHAR asterisk
ENCODING 42
SWIDTH 411 0
DWIDTH 6 0
BBX 5 5 0 6
ATTRIBUTES 0185
BITMAP
20
a8
70
50
50
ENDCHAR
STARTCHAR plus
ENCODING 43
SWIDTH 548 0
DWIDTH 8 0
BBX 7 7 1 2
ATTRIBUTES 0247
BITMAP
10
10
10
fe
10
10
10
ENDCHAR
STARTCHAR comma
ENCODING 44
SWIDTH 274 0
DWIDTH 4 0
BBX 2 4 1 -2
ATTRIBUTES 0115
BITMAP
c0
c0
40
80
ENDCHAR
STARTCHAR minus
ENCODING 45
SWIDTH 342 0
DWIDTH 5 0
BBX 4 1 1 3
ATTRIBUTES 014c
BITMAP
f0
ENDCHAR
STARTCHAR period
ENCODING 46
SWIDTH 274 0
DWIDTH 4 0
BBX 2 2 1 0
ATTRIBUTES 0115
BITMAP
c0
c0
ENDCHAR
STARTCHAR slash
ENCODING 47
SWIDTH 274 0
DWIDTH 4 0
BBX 4 11 0 0
ATTRIBUTES 0115
BITMAP
10
10
20
20
20
40
40
40
40
80
80
ENDCHAR
STARTCHAR 0
ENCODING 48
SWIDTH 548 0
DWIDTH 8 0
BBX 6 11 1 0
ATTRIBUTES 022b
BITMAP
70
48
c4
84
84
84
84
84
84
48
38
ENDCHAR
STARTCHAR 1
ENCODING 49
SWIDTH 548 0
DWIDTH 8 0
BBX 4 11 1 0
ATTRIBUTES 022b
BITMAP
10
30
70
d0
10
10
10
10
10
10
10
ENDCHAR
STARTCHAR 2
ENCODING 50
SWIDTH 548 0
DWIDTH 8 0
BBX 7 11 0 0
ATTRIBUTES 022b
BITMAP
18
64
42
02
06
04
18
30
60
40
fe
ENDCHAR
STARTCHAR 3
ENCODING 51
SWIDTH 548 0
DWIDTH 8 0
BBX 7 11 1 0
ATTRIBUTES 022b
BITMAP
38
cc
84
04
0c
3c
06
06
86
c4
38
ENDCHAR
STARTCHAR 4
ENCODING 52
SWIDTH 548 0
DWIDTH 8 0
BBX 7 11 0 0
ATTRIBUTES 022b
BITMAP
04
0c
0c
14
24
64
44
fe
04
04
04
ENDCHAR
STARTCHAR 5
ENCODING 53
SWIDTH 548 0
DWIDTH 8 0
BBX 7 10 1 0
ATTRIBUTES 022b
BITMAP
7c
40
c0
f8
c4
02
02
82
c4
38
ENDCHAR
STARTCHAR 6
ENCODING 54
SWIDTH 548 0
DWIDTH 8 0
BBX 7 11 0 0
ATTRIBUTES 022b
BITMAP
38
64
42
c0
d8
e6
c2
c2
c2
64
38
ENDCHAR
STARTCHAR 7
ENCODING 55
SWIDTH 548 0
DWIDTH 8 0
BBX 7 10 1 0
ATTRIBUTES 022b
BITMAP
fe
06
0c
08
18
10
30
20
20
20
ENDCHAR
STARTCHAR 8
ENCODING 56
SWIDTH 548 0
DWIDTH 8 0
BBX 7 11 1 0
ATTRIBUTES 022b
BITMAP
38
6c
44
44
6c
7c
c6
c6
c6
44
38
ENDCHAR
STARTCHAR 9
ENCODING 57
SWIDTH 548 0
DWIDTH 8 0
BBX 6 11 1 0
ATTRIBUTES 022b
BITMAP
70
48
84
84
84
4c
34
04
84
48
30
ENDCHAR
STARTCHAR colon
ENCODING 58
SWIDTH 274 0
DWIDTH 4 0
BBX 2 8 1 0
ATTRIBUTES 0115
BITMAP
c0
c0
00
00
00
00
c0
c0
ENDCHAR
STARTCHAR semicolon
ENCODING 59
SWIDTH 274 0
DWIDTH 4 0
BBX 2 10 1 -2
ATTRIBUTES 0115
BITMAP
c0
c0
00
00
00
00
c0
c0
40
80
ENDCHAR
STARTCHAR less
ENCODING 60
SWIDTH 548 0
DWIDTH 8 0
BBX 7 7 1 2
ATTRIBUTES 0247
BITMAP
02
0e
70
c0
e0
1c
06
ENDCHAR
STARTCHAR equal
ENCODING 61
SWIDTH 822 0
DWIDTH 12 0
BBX 9 4 1 2
ATTRIBUTES 031a
BITMAP
ff80
0000
0000
ff80
ENDCHAR
STARTCHAR greater
ENCODING 62
SWIDTH 548 0
DWIDTH 8 0
BBX 7 7 1 2
ATTRIBUTES 0247
BITMAP
80
e0
1c
06
0e
70
c0
ENDCHAR
STARTCHAR question
ENCODING 63
SWIDTH 548 0
DWIDTH 8 0
BBX 7 11 1 0
ATTRIBUTES 022b
BITMAP
30
30
00
30
30
60
c0
80
84
4c
38
ENDCHAR
STARTCHAR at
ENCODING 64
SWIDTH 822 0
DWIDTH 12 0
BBX 9 9 1 0
ATTRIBUTES 031a
BITMAP
0200
0200
0400
ff80
0800
0800
ff80
2000
2000
ENDCHAR
STARTCHAR A
ENCODING 65
SWIDTH 822 0
DWIDTH 12 0
BBX 9 9 1 0
ATTRIBUTES 031a
BITMAP
0800
0800
0800
0800
ff80
0800
0800
0800
0800
ENDCHAR
STARTCHAR B
ENCODING 66
SWIDTH 822 0
DWIDTH 12 0
BBX 9 1 1 4
ATTRIBUTES 031a
BITMAP
ff80
ENDCHAR
STARTCHAR C
ENCODING 67
SWIDTH 754 0
DWIDTH 11 0
BBX 6 7 2 1
ATTRIBUTES 02d3
BITMAP
30
10
dc
30
58
a4
20
ENDCHAR
STARTCHAR D
ENCODING 68
SWIDTH 822 0
DWIDTH 12 0
BBX 9 9 1 0
ATTRIBUTES 031a
BITMAP
8080
4100
2200
1400
0800
1400
2200
4100
8080
ENDCHAR
STARTCHAR E
ENCODING 69
SWIDTH 548 0
DWIDTH 8 0
BBX 2 2 3 3
ATTRIBUTES 0242
BITMAP
c0
c0
ENDCHAR
STARTCHAR F
ENCODING 70
SWIDTH 822 0
DWIDTH 12 0
BBX 8 7 2 1
ATTRIBUTES 031a
BITMAP
10
00
00
ff
00
00
10
ENDCHAR
STARTCHAR G
ENCODING 71
SWIDTH 822 0
DWIDTH 12 0
BBX 9 9 1 0
ATTRIBUTES 031a
BITMAP
0800
0800
0800
ff80
0800
0800
0800
0000
7f80
ENDCHAR
STARTCHAR H
ENCODING 72
SWIDTH 822 0
DWIDTH 12 0
BBX 9 9 1 0
ATTRIBUTES 031a
BITMAP
7f80
0000
0800
0800
0800
ff80
0800
0800
0800
ENDCHAR
STARTCHAR I
ENCODING 73
SWIDTH 822 0
DWIDTH 12 0
BBX 8 9 2 0
ATTRIBUTES 031a
BITMAP
18
76
91
91
ff
91
91
92
7c
ENDCHAR
STARTCHAR J
ENCODING 74
SWIDTH 822 0
DWIDTH 12 0
BBX 9 9 1 0
ATTRIBUTES 031a
BITMAP
1c00
7300
4080
c080
ff80
c080
4080
7300
1c00
ENDCHAR
STARTCHAR K
ENCODING 75
SWIDTH 822 0
DWIDTH 12 0
BBX 8 9 2 0
ATTRIBUTES 031a
BITMAP
3c
66
e7
a9
91
a9
a7
46
3c
ENDCHAR
STARTCHAR L
ENCODING 76
SWIDTH 822 0
DWIDTH 12 0
BBX 9 9 1 0
ATTRIBUTES 031a
BITMAP
1c00
6300
4300
8480
8880
9080
6100
6300
1c00
ENDCHAR
STARTCHAR M
ENCODING 77
SWIDTH 822 0
DWIDTH 12 0
BBX 8 9 2 0
ATTRIBUTES 031a
BITMAP
3c
66
c3
81
99
99
c3
66
3c
ENDCHAR
STARTCHAR N
ENCODING 78
SWIDTH 822 0
DWIDTH 12 0
BBX 8 9 2 0
ATTRIBUTES 031a
BITMAP
81
81
81
81
81
81
42
66
3c
ENDCHAR
STARTCHAR O
ENCODING 79
SWIDTH 822 0
DWIDTH 12 0
BBX 9 9 1 0
ATTRIBUTES 031a
BITMAP
1c00
6300
4100
8080
8080
8080
8080
8080
8080
ENDCHAR
STARTCHAR P
ENCODING 80
SWIDTH 822 0
DWIDTH 12 0
BBX 9 7 1 2
ATTRIBUTES 031a
BITMAP
0080
0700
1800
6000
3000
0c00
0380
ENDCHAR
STARTCHAR Q
ENCODING 81
SWIDTH 822 0
DWIDTH 12 0
BBX 9 7 1 2
ATTRIBUTES 031a
BITMAP
8000
e000
1c00
0300
0600
3800
c000
ENDCHAR
STARTCHAR R
ENCODING 82
SWIDTH 822 0
DWIDTH 12 0
BBX 9 9 1 0
ATTRIBUTES 031a
BITMAP
0080
0700
1800
6000
3000
0c00
0380
0000
ff80
ENDCHAR
STARTCHAR S
ENCODING 83
SWIDTH 822 0
DWIDTH 12 0
BBX 9 9 1 0
ATTRIBUTES 031a
BITMAP
8000
e000
1c00
0300
0600
3800
c000
0000
ff80
ENDCHAR
STARTCHAR T
ENCODING 84
SWIDTH 822 0
DWIDTH 12 0
BBX 9 9 1 0
ATTRIBUTES 031a
BITMAP
0380
0c00
3000
6000
1800
c700
3880
0600
0180
ENDCHAR
STARTCHAR U
ENCODING 85
SWIDTH 822 0
DWIDTH 12 0
BBX 9 9 1 0
ATTRIBUTES 031a
BITMAP
c000
3800
0600
0300
1c00
e380
8c00
7000
8000
ENDCHAR
STARTCHAR V
ENCODING 86
SWIDTH 1097 0
DWIDTH 16 0
BBX 14 9 1 0
ATTRIBUTES 045d
BITMAP
0084
0318
0c60
3180
c200
2180
1860
0618
0184
ENDCHAR
STARTCHAR W
ENCODING 87
SWIDTH 1097 0
DWIDTH 16 0
BBX 14 9 1 0
ATTRIBUTES 045d
BITMAP
8400
c300
30c0
0c30
030c
0630
18c0
6300
8400
ENDCHAR
STARTCHAR X
ENCODING 88
SWIDTH 822 0
DWIDTH 12 0
BBX 9 3 1 4
ATTRIBUTES 031a
BITMAP
8700
9c80
6080
ENDCHAR
STARTCHAR Y
ENCODING 89
SWIDTH 822 0
DWIDTH 12 0
BBX 9 5 1 2
ATTRIBUTES 031a
BITMAP
8700
9c80
6080
0000
ff80
ENDCHAR
STARTCHAR Z
ENCODING 90
SWIDTH 822 0
DWIDTH 12 0
BBX 9 5 2 2
ATTRIBUTES 031a
BITMAP
8300
9c80
e280
9d00
6080
ENDCHAR
STARTCHAR bracketleft
ENCODING 91
SWIDTH 822 0
DWIDTH 12 0
BBX 9 10 2 0
ATTRIBUTES 031a
BITMAP
2300
6a00
b600
be00
f200
6800
ff80
0000
0000
ff80
ENDCHAR
STARTCHAR backslash
ENCODING 92
SWIDTH 822 0
DWIDTH 12 0
BBX 9 7 1 1
ATTRIBUTES 031a
BITMAP
ff80
0000
0000
ff80
0000
0000
ff80
ENDCHAR
STARTCHAR bracketright
ENCODING 93
SWIDTH 685 0
DWIDTH 10 0
BBX 9 6 0 1
ATTRIBUTES 02c8
BITMAP
6780
dc00
8400
8800
5400
2380
ENDCHAR
STARTCHAR asciicircum
ENCODING 94
SWIDTH 480 0
DWIDTH 7 0
BBX 7 11 0 -1
ATTRIBUTES 01ee
BITMAP
38
24
02
3a
66
42
82
84
84
98
70
ENDCHAR
STARTCHAR underscore
ENCODING 95
SWIDTH 822 0
DWIDTH 12 0
BBX 9 9 2 0
ATTRIBUTES 031a
BITMAP
1f80
6000
4000
8000
8000
8000
4000
6000
1f80
ENDCHAR
STARTCHAR grave
ENCODING 96
SWIDTH 822 0
DWIDTH 12 0
BBX 9 9 1 0
ATTRIBUTES 031a
BITMAP
fc00
0300
0100
0080
0080
0080
0100
0300
fc00
ENDCHAR
STARTCHAR a
ENCODING 97
SWIDTH 822 0
DWIDTH 12 0
BBX 9 9 2 0
ATTRIBUTES 031a
BITMAP
3f80
4000
8000
8000
8000
4000
3f80
0000
ff80
ENDCHAR
STARTCHAR b
ENCODING 98
SWIDTH 822 0
DWIDTH 12 0
BBX 9 9 1 0
ATTRIBUTES 031a
BITMAP
fe00
0100
0080
0080
0080
0100
fe00
0000
ff80
ENDCHAR
STARTCHAR c
ENCODING 99
SWIDTH 822 0
DWIDTH 12 0
BBX 9 11 2 -1
ATTRIBUTES 031a
BITMAP
0200
3f80
6400
c400
8400
8800
9000
d000
6000
3f80
4000
ENDCHAR
STARTCHAR d
ENCODING 100
SWIDTH 822 0
DWIDTH 12 0
BBX 9 11 1 -1
ATTRIBUTES 031a
BITMAP
0200
fe00
0700
0500
0880
0880
1080
1180
2300
fe00
4000
ENDCHAR
STARTCHAR e
ENCODING 101
SWIDTH 822 0
DWIDTH 12 0
BBX 9 11 2 -1
ATTRIBUTES 031a
BITMAP
0100
3f80
4400
8400
8400
8800
4800
3f80
2000
ff80
4000
ENDCHAR
STARTCHAR f
ENCODING 102
SWIDTH 822 0
DWIDTH 12 0
BBX 9 11 1 -1
ATTRIBUTES 031a
BITMAP
0100
fe00
0300
0480
0480
0880
0900
fe00
1000
ff80
4000
ENDCHAR
STARTCHAR g
ENCODING 103
SWIDTH 685 0
DWIDTH 10 0
BBX 8 8 0 0
ATTRIBUTES 02c8
BITMAP
3f
40
80
ff
80
80
60
3f
ENDCHAR
STARTCHAR h
ENCODING 104
SWIDTH 685 0
DWIDTH 10 0
BBX 8 10 0 -1
ATTRIBUTES 02c8
BITMAP
02
3f
44
88
ff
90
d0
60
3f
40
ENDCHAR
STARTCHAR i
ENCODING 105
SWIDTH 685 0
DWIDTH 10 0
BBX 8 8 0 0
ATTRIBUTES 02c8
BITMAP
3f
40
80
ff
80
80
60
3f
ENDCHAR
STARTCHAR j
ENCODING 106
SWIDTH 548 0
DWIDTH 8 0
BBX 7 10 -1 0
ATTRIBUTES 0224
BITMAP
fe
02
02
02
7e
02
02
02
02
fe
ENDCHAR
STARTCHAR k
ENCODING 107
SWIDTH 411 0
DWIDTH 6 0
BBX 6 7 0 0
ATTRIBUTES 01b6
BITMAP
f0
18
0c
7c
0c
18
f0
ENDCHAR
STARTCHAR l
ENCODING 108
SWIDTH 822 0
DWIDTH 12 0
BBX 9 10 0 0
ATTRIBUTES 0336
BITMAP
8100
8300
c180
7280
9a00
8c00
8600
4300
6180
6080
ENDCHAR
STARTCHAR m
ENCODING 109
SWIDTH 685 0
DWIDTH 10 0
BBX 10 11 -1 -1
ATTRIBUTES 02ae
BITMAP
3e40
4780
4000
20c0
0180
0180
0080
00c0
7040
9880
0f00
ENDCHAR
STARTCHAR n
ENCODING 110
SWIDTH 822 0
DWIDTH 12 0
BBX 11 10 0 0
ATTRIBUTES 031a
BITMAP
7380
8c40
8840
c880
4f00
4880
0880
0880
3080
60c0
ENDCHAR
STARTCHAR o
ENCODING 111
SWIDTH 960 0
DWIDTH 14 0
BBX 10 11 0 -3
ATTRIBUTES 03da
BITMAP
1800
1100
26c0
4840
5040
64c0
6480
6700
6000
a000
6000
ENDCHAR
STARTCHAR p
ENCODING 112
SWIDTH 480 0
DWIDTH 7 0
BBX 7 13 0 -3
ATTRIBUTES 01f4
BITMAP
0e
08
08
3c
08
10
10
10
10
20
20
20
c0
ENDCHAR
STARTCHAR q
ENCODING 113
SWIDTH 822 0
DWIDTH 12 0
BBX 9 11 1 -2
ATTRIBUTES 031a
BITMAP
0080
0080
0100
3200
0c00
0c00
1200
2200
7f80
0200
0200
ENDCHAR
STARTCHAR r
ENCODING 114
SWIDTH 822 0
DWIDTH 12 0
BBX 8 9 2 0
ATTRIBUTES 031a
BITMAP
08
09
06
3c
c4
24
1c
0b
08
ENDCHAR
STARTCHAR s
ENCODING 115
SWIDTH 411 0
DWIDTH 6 0
BBX 1 14 2 -2
ATTRIBUTES 018d
BITMAP
80
80
80
80
80
80
80
80
80
80
80
80
80
80
ENDCHAR
STARTCHAR t
ENCODING 116
SWIDTH 548 0
DWIDTH 8 0
BBX 4 14 2 -2
ATTRIBUTES 0242
BITMAP
90
90
90
90
90
90
90
90
90
90
90
90
90
90
ENDCHAR
STARTCHAR u
ENCODING 117
SWIDTH 685 0
DWIDTH 10 0
BBX 9 10 0 0
ATTRIBUTES 0292
BITMAP
0800
0800
0800
0800
0800
0800
0800
0800
0800
ff80
ENDCHAR
STARTCHAR v
ENCODING 118
SWIDTH 1028 0
DWIDTH 15 0
BBX 12 1 0 0
ATTRIBUTES 03e8
BITMAP
c610
ENDCHAR
STARTCHAR w
ENCODING 119
SWIDTH 1028 0
DWIDTH 15 0
BBX 12 1 0 4
ATTRIBUTES 03e8
BITMAP
c610
ENDCHAR
STARTCHAR x
ENCODING 120
SWIDTH 1028 0
DWIDTH 15 0
BBX 2 11 5 -1
ATTRIBUTES 03e8
BITMAP
c0
00
00
00
00
c0
00
00
00
00
c0
ENDCHAR
STARTCHAR y
ENCODING 121
SWIDTH 1028 0
DWIDTH 15 0
BBX 9 9 1 0
ATTRIBUTES 03e8
BITMAP
0080
0080
0000
0000
0c00
0000
0000
c000
c000
ENDCHAR
STARTCHAR z
ENCODING 122
SWIDTH 1028 0
DWIDTH 15 0
BBX 9 9 1 0
ATTRIBUTES 03e8
BITMAP
8000
8000
0000
0000
0c00
0000
0000
0080
0080
ENDCHAR
STARTCHAR braceleft
ENCODING 123
SWIDTH 891 0
DWIDTH 13 0
BBX 10 3 2 3
ATTRIBUTES 0388
BITMAP
e1c0
bfc0
e1c0
ENDCHAR
STARTCHAR bar
ENCODING 124
SWIDTH 891 0
DWIDTH 13 0
BBX 10 3 2 3
ATTRIBUTES 0388
BITMAP
e1c0
fe40
e1c0
ENDCHAR
STARTCHAR braceright
ENCODING 125
SWIDTH 685 0
DWIDTH 10 0
BBX 10 3 0 3
ATTRIBUTES 02bb
BITMAP
0080
ffc0
0080
ENDCHAR
STARTCHAR asciitilde
ENCODING 126
SWIDTH 480 0
DWIDTH 7 0
BBX 8 8 0 0
ATTRIBUTES 01f5
BITMAP
ff
81
81
81
81
81
81
ff
ENDCHAR
STARTCHAR C000177
ENCODING 127
SWIDTH 480 0
DWIDTH 7 0
BBX 8 8 0 0
ATTRIBUTES 01f5
BITMAP
ff
81
81
81
81
81
81
ff
ENDCHAR
STARTCHAR C000200
ENCODING 128
SWIDTH 548 0
DWIDTH 8 0
BBX 5 14 2 -2
ATTRIBUTES 0242
BITMAP
18
28
20
20
20
20
20
20
20
20
20
20
c0
80
ENDCHAR
STARTCHAR C000201
ENCODING 129
SWIDTH 822 0
DWIDTH 12 0
BBX 9 14 2 -2
ATTRIBUTES 0356
BITMAP
1980
2a80
2200
2200
2200
2200
2200
2200
2200
2200
2200
2200
cc00
8800
ENDCHAR
STARTCHAR C000202
ENCODING 130
SWIDTH 1097 0
DWIDTH 16 0
BBX 13 14 2 -2
ATTRIBUTES 046c
BITMAP
1998
2aa8
2220
2220
2220
2220
2220
2220
2220
2220
2220
2220
cca0
88c0
ENDCHAR
STARTCHAR C000203
ENCODING 131
SWIDTH 617 0
DWIDTH 9 0
BBX 7 14 1 -2
ATTRIBUTES 0265
BITMAP
0c
14
10
10
38
54
92
92
54
38
10
10
60
40
ENDCHAR
STARTCHAR C000204
ENCODING 132
SWIDTH 891 0
DWIDTH 13 0
BBX 11 14 1 -2
ATTRIBUTES 037b
BITMAP
0cc0
1540
1100
1100
3f00
71c0
9120
9120
71c0
1f00
1100
1100
6500
4600
ENDCHAR
STARTCHAR C000205
ENCODING 133
SWIDTH 1165 0
DWIDTH 17 0
BBX 15 14 1 -2
ATTRIBUTES 048f
BITMAP
0ccc
1554
1110
1110
1ff0
711c
9112
9112
711c
1ff0
1110
1110
6550
4660
ENDCHAR
STARTCHAR C000206
ENCODING 134
SWIDTH 548 0
DWIDTH 8 0
BBX 8 12 0 0
ATTRIBUTES 0215
BITMAP
01
01
02
02
02
02
44
c4
24
18
18
08
ENDCHAR
STARTCHAR C000207
ENCODING 135
SWIDTH 548 0
DWIDTH 8 0
BBX 8 12 0 0
ATTRIBUTES 0215
BITMAP
01
01
01
02
02
02
24
24
24
14
14
08
ENDCHAR
STARTCHAR C000210
ENCODING 136
SWIDTH 480 0
DWIDTH 7 0
BBX 8 12 0 0
ATTRIBUTES 0202
BITMAP
01
01
01
02
c2
42
24
24
14
18
18
08
ENDCHAR
STARTCHAR C000211
ENCODING 137
SWIDTH 411 0
DWIDTH 6 0
BBX 5 12 0 0
ATTRIBUTES 0196
BITMAP
08
08
08
08
08
08
08
c8
28
18
18
08
ENDCHAR
STARTCHAR C000212
ENCODING 138
SWIDTH 822 0
DWIDTH 12 0
BBX 10 13 1 -2
ATTRIBUTES 0336
BITMAP
e1c0
4080
4080
4080
4080
4080
4080
4080
4080
4080
4080
4080
7f80
ENDCHAR
STARTCHAR C000213
ENCODING 139
SWIDTH 822 0
DWIDTH 12 0
BBX 10 13 1 -2
ATTRIBUTES 0336
BITMAP
7f80
4080
4080
4080
4080
4080
4080
4080
4080
4080
4080
4080
e1c0
ENDCHAR
STARTCHAR C000214
ENCODING 140
SWIDTH 685 0
DWIDTH 10 0
BBX 10 12 0 -1
ATTRIBUTES 02c8
BITMAP
ff80
4040
2040
1000
0800
0c00
0800
0800
1000
2040
4040
ffc0
ENDCHAR
STARTCHAR C000215
ENCODING 141
SWIDTH 822 0
DWIDTH 12 0
BBX 13 13 0 -1
ATTRIBUTES 0334
BITMAP
fff8
6010
6010
2020
3020
1040
1840
1880
0c80
0d00
0700
0600
0200
ENDCHAR
STARTCHAR C000216
ENCODING 142
SWIDTH 822 0
DWIDTH 12 0
BBX 13 14 0 -2
ATTRIBUTES 0340
BITMAP
8008
c018
4010
6030
3fe0
2060
1040
10c0
18c0
0980
0980
0700
0700
0300
ENDCHAR
STARTCHAR C000217
ENCODING 143
SWIDTH 1714 0
DWIDTH 25 0
BBX 24 13 1 0
ATTRIBUTES 06a3
BITMAP
230000
e30000
600000
600000
600000
631f9c
630866
630846
630846
630846
630846
630846
630846
ENDCHAR
STARTCHAR C000220
ENCODING 144
SWIDTH 342 0
DWIDTH 5 0
BBX 4 3 0 8
ATTRIBUTES 014c
BITMAP
60
90
90
ENDCHAR
STARTCHAR C000221
ENCODING 145
SWIDTH 342 0
DWIDTH 5 0
BBX 4 3 0 8
ATTRIBUTES 014c
BITMAP
90
60
60
ENDCHAR
STARTCHAR C000222
ENCODING 146
SWIDTH 342 0
DWIDTH 5 0
BBX 4 2 0 9
ATTRIBUTES 014c
BITMAP
90
60
ENDCHAR
STARTCHAR C000223
ENCODING 147
SWIDTH 342 0
DWIDTH 5 0
BBX 2 3 2 8
ATTRIBUTES 014c
BITMAP
40
80
80
ENDCHAR
STARTCHAR C000224
ENCODING 148
SWIDTH 342 0
DWIDTH 5 0
BBX 2 3 1 8
ATTRIBUTES 014c
BITMAP
80
40
40
ENDCHAR
STARTCHAR C000225
ENCODING 149
SWIDTH 342 0
DWIDTH 5 0
BBX 5 2 0 9
ATTRIBUTES 014c
BITMAP
e8
b8
ENDCHAR
STARTCHAR C000226
ENCODING 150
SWIDTH 480 0
DWIDTH 7 0
BBX 7 1 0 10
ATTRIBUTES 01f4
BITMAP
fe
ENDCHAR
STARTCHAR C000227
ENCODING 151
SWIDTH 480 0
DWIDTH 7 0
BBX 7 3 0 9
ATTRIBUTES 01f4
BITMAP
04
fe
04
ENDCHAR
STARTCHAR C000230
ENCODING 152
SWIDTH 274 0
DWIDTH 4 0
BBX 1 2 1 9
ATTRIBUTES 0108
BITMAP
80
80
ENDCHAR
STARTCHAR C000231
ENCODING 153
SWIDTH 274 0
DWIDTH 4 0
BBX 4 2 0 9
ATTRIBUTES 0108
BITMAP
90
90
ENDCHAR
STARTCHAR C000232
ENCODING 154
SWIDTH 411 0
DWIDTH 6 0
BBX 6 2 0 9
ATTRIBUTES 01a3
BITMAP
b4
94
ENDCHAR
STARTCHAR C000233
ENCODING 155
SWIDTH 274 0
DWIDTH 4 0
BBX 4 4 0 7
ATTRIBUTES 0103
BITMAP
e0
90
90
60
ENDCHAR
STARTCHAR C000234
ENCODING 156
SWIDTH 822 0
DWIDTH 12 0
BBX 8 9 2 0
ATTRIBUTES 031a
BITMAP
10
10
18
24
24
42
42
81
81
ENDCHAR
STARTCHAR C000235
ENCODING 157
SWIDTH 822 0
DWIDTH 12 0
BBX 8 9 2 0
ATTRIBUTES 031a
BITMAP
81
81
42
42
24
24
28
18
08
ENDCHAR
STARTCHAR C000236
ENCODING 158
SWIDTH 480 0
DWIDTH 7 0
BBX 8 8 0 0
ATTRIBUTES 01f5
BITMAP
ff
81
81
81
81
81
81
ff
ENDCHAR
STARTCHAR C000237
ENCODING 159
SWIDTH 480 0
DWIDTH 7 0
BBX 8 8 0 0
ATTRIBUTES 01f5
BITMAP
ff
81
81
81
81
81
81
ff
ENDCHAR
STARTCHAR nobreakspace
ENCODING 160
SWIDTH 411 0
DWIDTH 6 0
BBX 3 16 0 -3
ATTRIBUTES 017e
BITMAP
20
40
40
40
60
20
20
c0
20
20
20
40
40
40
40
20
ENDCHAR
STARTCHAR exclamdown
ENCODING 161
SWIDTH 411 0
DWIDTH 6 0
BBX 3 16 1 -3
ATTRIBUTES 017e
BITMAP
80
40
40
40
40
80
80
60
40
80
80
40
40
40
40
80
ENDCHAR
STARTCHAR cent
ENCODING 162
SWIDTH 342 0
DWIDTH 5 0
BBX 3 14 1 -2
ATTRIBUTES 0137
BITMAP
20
20
40
40
80
80
80
80
80
80
40
40
20
20
ENDCHAR
STARTCHAR sterling
ENCODING 163
SWIDTH 342 0
DWIDTH 5 0
BBX 3 14 1 -2
ATTRIBUTES 0137
BITMAP
80
40
40
40
20
20
20
20
20
20
40
40
40
80
ENDCHAR
STARTCHAR currency
ENCODING 164
SWIDTH 342 0
DWIDTH 5 0
BBX 4 15 1 -2
ATTRIBUTES 014f
BITMAP
10
10
20
20
40
40
80
80
80
40
40
20
20
10
10
ENDCHAR
STARTCHAR yen
ENCODING 165
SWIDTH 342 0
DWIDTH 5 0
BBX 4 15 0 -2
ATTRIBUTES 014f
BITMAP
80
80
40
40
20
10
10
10
10
20
20
40
40
80
80
ENDCHAR
STARTCHAR brokenbar
ENCODING 166
SWIDTH 274 0
DWIDTH 4 0
BBX 3 16 1 -3
ATTRIBUTES 0119
BITMAP
e0
80
80
80
80
80
80
80
80
80
80
80
80
80
80
e0
ENDCHAR
STARTCHAR section
ENCODING 167
SWIDTH 274 0
DWIDTH 4 0
BBX 3 16 0 -3
ATTRIBUTES 0119
BITMAP
e0
20
20
20
20
20
20
20
20
20
20
20
20
20
20
e0
ENDCHAR
STARTCHAR diaeresis
ENCODING 168
SWIDTH 342 0
DWIDTH 5 0
BBX 3 6 2 0
ATTRIBUTES 0157
BITMAP
60
80
80
80
80
80
ENDCHAR
STARTCHAR copyright
ENCODING 169
SWIDTH 342 0
DWIDTH 5 0
BBX 3 13 0 0
ATTRIBUTES 0157
BITMAP
20
20
20
20
20
20
c0
20
20
20
20
20
20
ENDCHAR
STARTCHAR ordfeminine
ENCODING 170
SWIDTH 342 0
DWIDTH 5 0
BBX 3 7 2 0
ATTRIBUTES 0157
BITMAP
80
80
80
80
80
80
60
ENDCHAR
STARTCHAR guillemotleft
ENCODING 171
SWIDTH 342 0
DWIDTH 5 0
BBX 3 6 0 0
ATTRIBUTES 0157
BITMAP
c0
20
20
20
20
20
ENDCHAR
STARTCHAR notsign
ENCODING 172
SWIDTH 342 0
DWIDTH 5 0
BBX 3 12 2 0
ATTRIBUTES 0157
BITMAP
80
80
80
80
80
60
80
80
80
80
80
80
ENDCHAR
STARTCHAR hyphen
ENCODING 173
SWIDTH 342 0
DWIDTH 5 0
BBX 3 7 0 0
ATTRIBUTES 0157
BITMAP
20
20
20
20
20
20
c0
ENDCHAR
STARTCHAR registered
ENCODING 174
SWIDTH 342 0
DWIDTH 5 0
BBX 1 5 2 0
ATTRIBUTES 0157
BITMAP
80
80
80
80
80
ENDCHAR
STARTCHAR macron
ENCODING 175
SWIDTH 411 0
DWIDTH 6 0
BBX 4 12 2 0
ATTRIBUTES 018d
BITMAP
10
10
20
40
40
40
40
80
80
80
80
80
ENDCHAR
STARTCHAR degree
ENCODING 176
SWIDTH 411 0
DWIDTH 6 0
BBX 1 5 2 0
ATTRIBUTES 018d
BITMAP
80
80
80
80
80
ENDCHAR
STARTCHAR plusminus
ENCODING 177
SWIDTH 411 0
DWIDTH 6 0
BBX 4 12 2 0
ATTRIBUTES 018d
BITMAP
80
80
80
80
80
40
40
40
20
20
10
10
ENDCHAR
STARTCHAR twosuperior
ENCODING 178
SWIDTH 411 0
DWIDTH 6 0
BBX 4 12 0 0
ATTRIBUTES 018d
BITMAP
40
40
20
20
20
10
10
10
10
10
10
10
ENDCHAR
STARTCHAR threesuperior
ENCODING 179
SWIDTH 411 0
DWIDTH 6 0
BBX 1 5 3 0
ATTRIBUTES 018d
BITMAP
80
80
80
80
80
ENDCHAR
STARTCHAR acute
ENCODING 180
SWIDTH 411 0
DWIDTH 6 0
BBX 4 12 0 0
ATTRIBUTES 018d
BITMAP
10
10
10
10
10
20
20
20
20
40
80
80
ENDCHAR
STARTCHAR mu
ENCODING 181
SWIDTH 342 0
DWIDTH 5 0
BBX 3 13 2 0
ATTRIBUTES 0169
BITMAP
e0
80
80
80
80
80
80
80
80
80
80
80
80
ENDCHAR
STARTCHAR paragraph
ENCODING 182
SWIDTH 342 0
DWIDTH 5 0
BBX 1 5 2 0
ATTRIBUTES 0169
BITMAP
80
80
80
80
80
ENDCHAR
STARTCHAR periodcentered
ENCODING 183
SWIDTH 342 0
DWIDTH 5 0
BBX 3 13 2 0
ATTRIBUTES 0169
BITMAP
80
80
80
80
80
80
80
80
80
80
80
80
e0
ENDCHAR
STARTCHAR cedilla
ENCODING 184
SWIDTH 342 0
DWIDTH 5 0
BBX 3 13 1 0
ATTRIBUTES 0169
BITMAP
e0
20
20
20
20
20
20
20
20
20
20
20
20
ENDCHAR
STARTCHAR onesuperior
ENCODING 185
SWIDTH 342 0
DWIDTH 5 0
BBX 1 5 3 0
ATTRIBUTES 0169
BITMAP
80
80
80
80
80
ENDCHAR
STARTCHAR masculine
ENCODING 186
SWIDTH 342 0
DWIDTH 5 0
BBX 3 13 1 0
ATTRIBUTES 0169
BITMAP
20
20
20
20
20
20
20
20
20
20
20
20
e0
ENDCHAR
STARTCHAR guillemotright
ENCODING 187
SWIDTH 480 0
DWIDTH 7 0
BBX 8 8 0 0
ATTRIBUTES 01f5
BITMAP
ff
81
81
81
81
81
81
ff
ENDCHAR
STARTCHAR onequarter
ENCODING 188
SWIDTH 342 0
DWIDTH 5 0
BBX 1 5 3 0
ATTRIBUTES 0169
BITMAP
80
80
80
80
80
ENDCHAR
STARTCHAR onehalf
ENCODING 189
SWIDTH 411 0
DWIDTH 6 0
BBX 5 15 1 -4
ATTRIBUTES 01b2
BITMAP
08
08
08
10
10
10
20
20
20
40
40
40
40
80
80
ENDCHAR
STARTCHAR threequarters
ENCODING 190
SWIDTH 411 0
DWIDTH 6 0
BBX 5 15 1 -4
ATTRIBUTES 01b2
BITMAP
80
80
80
40
40
40
20
20
20
10
10
10
08
08
08
ENDCHAR
STARTCHAR questiondown
ENCODING 191
SWIDTH 891 0
DWIDTH 13 0
BBX 11 11 1 0
ATTRIBUTES 037b
BITMAP
ffc0
8060
8060
8060
8060
8060
8060
8060
8060
ffe0
7fe0
ENDCHAR
STARTCHAR Agrave
ENCODING 192
SWIDTH 274 0
DWIDTH 4 0
BBX 3 16 1 -3
ATTRIBUTES 0119
BITMAP
e0
80
80
80
80
80
80
80
80
80
80
80
80
80
80
80
ENDCHAR
STARTCHAR Aacute
ENCODING 193
SWIDTH 274 0
DWIDTH 4 0
BBX 3 16 1 -3
ATTRIBUTES 0119
BITMAP
80
80
80
80
80
80
80
80
80
80
80
80
80
80
80
e0
ENDCHAR
STARTCHAR Acircumflex
ENCODING 194
SWIDTH 274 0
DWIDTH 4 0
BBX 3 16 0 -3
ATTRIBUTES 0119
BITMAP
e0
20
20
20
20
20
20
20
20
20
20
20
20
20
20
20
ENDCHAR
STARTCHAR Atilde
ENCODING 195
SWIDTH 274 0
DWIDTH 4 0
BBX 3 16 0 -3
ATTRIBUTES 0119
BITMAP
20
20
20
20
20
20
20
20
20
20
20
20
20
20
20
e0
ENDCHAR
STARTCHAR Adiaeresis
ENCODING 196
SWIDTH 480 0
DWIDTH 7 0
BBX 8 8 0 0
ATTRIBUTES 01f5
BITMAP
ff
81
81
81
81
81
81
ff
ENDCHAR
STARTCHAR Aring
ENCODING 197
SWIDTH 411 0
DWIDTH 6 0
BBX 1 5 4 0
ATTRIBUTES 0196
BITMAP
80
80
80
80
80
ENDCHAR
STARTCHAR AE
ENCODING 198
SWIDTH 617 0
DWIDTH 9 0
BBX 10 11 0 0
ATTRIBUTES 027e
BITMAP
3fc0
1840
1800
1800
1000
3000
3000
3000
3000
2000
f000
ENDCHAR
STARTCHAR Ccedilla
ENCODING 199
SWIDTH 822 0
DWIDTH 12 0
BBX 10 11 0 0
ATTRIBUTES 0318
BITMAP
0200
0300
0500
0900
0900
1080
3080
2080
40c0
c040
ffc0
ENDCHAR
STARTCHAR Egrave
ENCODING 200
SWIDTH 822 0
DWIDTH 12 0
BBX 11 11 1 0
ATTRIBUTES 0340
BITMAP
0f80
18c0
30e0
6060
f160
de60
d260
c0c0
c180
6300
3e00
ENDCHAR
STARTCHAR Eacute
ENCODING 201
SWIDTH 822 0
DWIDTH 12 0
BBX 11 11 0 0
ATTRIBUTES 0338
BITMAP
0100
0300
0500
0580
0580
0980
1080
1080
20c0
40c0
e1e0
ENDCHAR
STARTCHAR Ecircumflex
ENCODING 202
SWIDTH 685 0
DWIDTH 10 0
BBX 10 11 0 0
ATTRIBUTES 02cc
BITMAP
1fc0
2040
2040
0000
1080
1f80
2080
0000
8000
8080
ff80
ENDCHAR
STARTCHAR Ediaeresis
ENCODING 203
SWIDTH 891 0
DWIDTH 13 0
BBX 13 11 0 0
ATTRIBUTES 0369
BITMAP
3ff8
1830
1820
1020
1060
3060
3040
3040
20c0
60c0
f1e0
ENDCHAR
STARTCHAR Igrave
ENCODING 204
SWIDTH 685 0
DWIDTH 10 0
BBX 11 11 0 0
ATTRIBUTES 02ce
BITMAP
3fe0
1820
0c00
0c00
0600
0200
0400
1800
2000
4080
ff80
ENDCHAR
STARTCHAR Iacute
ENCODING 205
SWIDTH 685 0
DWIDTH 10 0
BBX 10 11 1 0
ATTRIBUTES 02bd
BITMAP
c0c0
2100
3200
1400
1400
1800
1000
1000
1000
1000
7800
ENDCHAR
STARTCHAR Icircumflex
ENCODING 206
SWIDTH 754 0
DWIDTH 11 0
BBX 10 11 1 0
ATTRIBUTES 02ea
BITMAP
0f00
0600
0e00
3580
4cc0
c8c0
c980
c900
3e00
1800
3c00
ENDCHAR
STARTCHAR Idiaeresis
ENCODING 207
SWIDTH 822 0
DWIDTH 12 0
BBX 11 11 1 0
ATTRIBUTES 0322
BITMAP
9f60
4cc0
4c80
4d80
4900
3e00
0800
1800
1800
1800
3800
ENDCHAR
STARTCHAR ETH
ENCODING 208
SWIDTH 891 0
DWIDTH 13 0
BBX 12 11 1 0
ATTRIBUTES 0379
BITMAP
07c0
1c60
3030
3030
6030
6030
6060
2040
3080
9120
f3c0
ENDCHAR
STARTCHAR Ntilde
ENCODING 209
SWIDTH 822 0
DWIDTH 12 0
BBX 10 8 1 0
ATTRIBUTES 0343
BITMAP
1cc0
26c0
6280
c300
c300
c700
c980
70c0
ENDCHAR
STARTCHAR Ograve
ENCODING 210
SWIDTH 685 0
DWIDTH 10 0
BBX 8 15 1 -3
ATTRIBUTES 02a5
BITMAP
0e
13
23
22
24
3c
66
42
42
42
64
f8
c0
80
80
ENDCHAR
STARTCHAR Oacute
ENCODING 211
SWIDTH 685 0
DWIDTH 10 0
BBX 9 11 1 -3
ATTRIBUTES 02b2
BITMAP
c080
2080
3100
1200
1400
1800
1000
7000
5000
a000
6000
ENDCHAR
STARTCHAR Ocircumflex
ENCODING 212
SWIDTH 685 0
DWIDTH 10 0
BBX 9 12 1 0
ATTRIBUTES 0290
BITMAP
0f00
1100
1800
0c00
0e00
1e00
2300
6300
c300
c600
4e00
3800
ENDCHAR
STARTCHAR Otilde
ENCODING 213
SWIDTH 548 0
DWIDTH 8 0
BBX 6 8 1 0
ATTRIBUTES 021e
BITMAP
1c
20
40
fc
c0
c0
40
7c
ENDCHAR
STARTCHAR Odiaeresis
ENCODING 214
SWIDTH 685 0
DWIDTH 10 0
BBX 10 15 1 -3
ATTRIBUTES 02ae
BITMAP
0080
c780
7e00
1000
3000
6000
6000
4000
c000
c000
c000
7e00
0100
0300
3c00
ENDCHAR
STARTCHAR multiply
ENCODING 215
SWIDTH 685 0
DWIDTH 10 0
BBX 8 11 1 -3
ATTRIBUTES 02ac
BITMAP
4e
73
63
43
43
42
c2
c6
06
06
04
ENDCHAR
STARTCHAR Ooblique
ENCODING 216
SWIDTH 685 0
DWIDTH 10 0
BBX 9 12 1 0
ATTRIBUTES 02d0
BITMAP
0600
1900
3180
2180
6180
6180
ff80
c300
c300
c600
4c00
7000
ENDCHAR
STARTCHAR Ugrave
ENCODING 217
SWIDTH 411 0
DWIDTH 6 0
BBX 4 8 1 0
ATTRIBUTES 0191
BITMAP
60
60
40
c0
c0
c0
c0
70
ENDCHAR
STARTCHAR Uacute
ENCODING 218
SWIDTH 685 0
DWIDTH 10 0
BBX 8 8 1 0
ATTRIBUTES 028e
BITMAP
63
64
68
50
78
c8
c4
c6
ENDCHAR
STARTCHAR Ucircumflex
ENCODING 219
SWIDTH 685 0
DWIDTH 10 0
BBX 8 12 1 0
ATTRIBUTES 02b2
BITMAP
20
70
18
08
08
1c
2c
24
44
46
86
83
ENDCHAR
STARTCHAR Udiaeresis
ENCODING 220
SWIDTH 685 0
DWIDTH 10 0
BBX 9 11 0 -3
ATTRIBUTES 02b4
BITMAP
3180
2180
2100
2100
6100
6300
6700
7900
c000
c000
c000
ENDCHAR
STARTCHAR Yacute
ENCODING 221
SWIDTH 685 0
DWIDTH 10 0
BBX 8 8 1 0
ATTRIBUTES 02b2
BITMAP
c3
61
22
22
24
38
30
20
ENDCHAR
STARTCHAR THORN
ENCODING 222
SWIDTH 617 0
DWIDTH 9 0
BBX 8 15 1 -3
ATTRIBUTES 027f
BITMAP
87
7c
30
60
20
1e
30
60
c0
c0
c0
7c
02
06
78
ENDCHAR
STARTCHAR ssharp
ENCODING 223
SWIDTH 617 0
DWIDTH 9 0
BBX 8 8 1 0
ATTRIBUTES 0289
BITMAP
1c
22
63
c3
c3
c6
4c
38
ENDCHAR
STARTCHAR agrave
ENCODING 224
SWIDTH 822 0
DWIDTH 12 0
BBX 11 8 1 0
ATTRIBUTES 0354
BITMAP
7fe0
9180
1180
3100
3100
2100
2100
2180
ENDCHAR
STARTCHAR aacute
ENCODING 225
SWIDTH 685 0
DWIDTH 10 0
BBX 8 11 1 -3
ATTRIBUTES 0294
BITMAP
0e
33
23
43
46
46
cc
f8
c0
80
80
ENDCHAR
STARTCHAR acircumflex
ENCODING 226
SWIDTH 754 0
DWIDTH 11 0
BBX 11 8 1 0
ATTRIBUTES 0306
BITMAP
1fe0
2300
4300
c300
c300
c600
6c00
3800
ENDCHAR
STARTCHAR atilde
ENCODING 227
SWIDTH 685 0
DWIDTH 10 0
BBX 8 8 1 0
ATTRIBUTES 02a3
BITMAP
ff
88
18
10
10
10
10
18
ENDCHAR
STARTCHAR adiaeresis
ENCODING 228
SWIDTH 685 0
DWIDTH 10 0
BBX 6 9 2 0
ATTRIBUTES 0292
BITMAP
4c
cc
c4
84
84
84
88
d0
60
ENDCHAR
STARTCHAR aring
ENCODING 229
SWIDTH 891 0
DWIDTH 13 0
BBX 11 15 1 -3
ATTRIBUTES 036c
BITMAP
0300
0200
0200
0600
1f80
6640
c620
8620
8420
8c60
4cc0
3f00
0800
0800
1800
ENDCHAR
STARTCHAR ae
ENCODING 230
SWIDTH 685 0
DWIDTH 10 0
BBX 10 11 0 -3
ATTRIBUTES 02bb
BITMAP
70c0
1080
1980
0900
0e00
0c00
1600
2600
4300
c300
c180
ENDCHAR
STARTCHAR ccedilla
ENCODING 231
SWIDTH 891 0
DWIDTH 13 0
BBX 11 12 2 -3
ATTRIBUTES 038e
BITMAP
0400
c460
c440
8c40
8cc0
88c0
8880
4900
3e00
1800
1800
1000
ENDCHAR
STARTCHAR egrave
ENCODING 232
SWIDTH 960 0
DWIDTH 14 0
BBX 12 9 1 0
ATTRIBUTES 03e4
BITMAP
0060
2030
6210
4610
8610
8410
8620
8b20
71c0
ENDCHAR
STARTCHAR eacute
ENCODING 233
SWIDTH 548 0
DWIDTH 8 0
BBX 6 8 1 0
ATTRIBUTES 0217
BITMAP
3c
60
60
18
60
c0
c0
78
ENDCHAR
STARTCHAR ecircumflex
ENCODING 234
SWIDTH 685 0
DWIDTH 10 0
BBX 9 12 1 0
ATTRIBUTES 02cc
BITMAP
1e00
3600
2300
4300
4300
4300
3f80
0600
4400
c400
4800
3000
ENDCHAR
STARTCHAR ediaeresis
ENCODING 235
SWIDTH 960 0
DWIDTH 14 0
BBX 13 8 1 0
ATTRIBUTES 03e2
BITMAP
fff8
a030
2310
4210
4610
4610
6620
39c0
ENDCHAR
STARTCHAR igrave
ENCODING 236
SWIDTH 685 0
DWIDTH 10 0
BBX 8 11 1 -3
ATTRIBUTES 029a
BITMAP
1e
23
43
43
c2
c6
cc
b8
80
c0
7c
ENDCHAR
STARTCHAR iacute
ENCODING 237
SWIDTH 617 0
DWIDTH 9 0
BBX 8 11 1 -3
ATTRIBUTES 027c
BITMAP
0f
30
60
c0
c0
c0
c0
7e
02
06
78
ENDCHAR
STARTCHAR icircumflex
ENCODING 238
SWIDTH 891 0
DWIDTH 13 0
BBX 12 11 1 -3
ATTRIBUTES 039f
BITMAP
3ce0
4710
8610
8610
8620
8620
44c0
3f00
0c00
0800
0800
ENDCHAR
STARTCHAR idiaeresis
ENCODING 239
SWIDTH 685 0
DWIDTH 10 0
BBX 6 12 2 0
ATTRIBUTES 028e
BITMAP
70
48
08
04
34
4c
44
84
88
88
90
70
ENDCHAR
STARTCHAR eth
ENCODING 240
SWIDTH 617 0
DWIDTH 9 0
BBX 9 13 0 0
ATTRIBUTES 024d
BITMAP
0380
0c80
0c80
0900
7e00
1000
1000
3000
2000
2200
2200
2c00
3000
ENDCHAR
STARTCHAR ntilde
ENCODING 241
SWIDTH 342 0
DWIDTH 5 0
BBX 3 8 1 0
ATTRIBUTES 0151
BITMAP
e0
60
60
40
40
c0
c0
e0
ENDCHAR
STARTCHAR ograve
ENCODING 242
SWIDTH 411 0
DWIDTH 6 0
BBX 7 11 -2 -3
ATTRIBUTES 0187
BITMAP
0e
06
04
04
04
0c
0c
08
08
90
e0
ENDCHAR
STARTCHAR oacute
ENCODING 243
SWIDTH 754 0
DWIDTH 11 0
BBX 10 12 0 -3
ATTRIBUTES 02d5
BITMAP
1000
11c0
2640
2840
3040
2080
2080
5500
5600
9000
9000
6000
ENDCHAR
STARTCHAR ocircumflex
ENCODING 244
SWIDTH 685 0
DWIDTH 10 0
BBX 7 11 1 0
ATTRIBUTES 0298
BITMAP
02
02
02
02
02
7e
02
02
02
02
fe
ENDCHAR
STARTCHAR otilde
ENCODING 245
SWIDTH 754 0
DWIDTH 11 0
BBX 8 11 2 0
ATTRIBUTES 0300
BITMAP
f8
86
02
01
01
81
81
81
82
84
f8
ENDCHAR
STARTCHAR odiaeresis
ENCODING 246
SWIDTH 617 0
DWIDTH 9 0
BBX 7 12 1 -1
ATTRIBUTES 0274
BITMAP
3e
62
40
40
20
18
60
c0
80
c2
66
3c
ENDCHAR
STARTCHAR division
ENCODING 247
SWIDTH 891 0
DWIDTH 13 0
BBX 11 11 1 0
ATTRIBUTES 036c
BITMAP
f1e0
9120
2080
60c0
4040
c060
c060
c060
60c0
3180
1f00
ENDCHAR
STARTCHAR oslash
ENCODING 248
SWIDTH 754 0
DWIDTH 11 0
BBX 11 13 1 -5
ATTRIBUTES 0304
BITMAP
1d00
2300
2300
4300
4240
4640
4b80
3e00
2400
4c00
4c00
9800
7000
ENDCHAR
STARTCHAR ugrave
ENCODING 249
SWIDTH 822 0
DWIDTH 12 0
BBX 12 13 0 0
ATTRIBUTES 032f
BITMAP
0380
0c80
0c80
0900
7e00
1380
1480
3880
3180
3190
2190
21e0
2180
ENDCHAR
STARTCHAR uacute
ENCODING 250
SWIDTH 685 0
DWIDTH 10 0
BBX 10 13 0 -5
ATTRIBUTES 02a5
BITMAP
3100
2e00
0400
0800
30c0
3d00
2e00
1200
2200
4600
8400
8c00
7800
ENDCHAR
STARTCHAR ucircumflex
ENCODING 251
SWIDTH 617 0
DWIDTH 9 0
BBX 8 12 1 0
ATTRIBUTES 0253
BITMAP
e0
20
38
70
98
38
48
4c
44
86
82
c3
ENDCHAR
STARTCHAR udiaeresis
ENCODING 252
SWIDTH 617 0
DWIDTH 9 0
BBX 11 13 0 0
ATTRIBUTES 024d
BITMAP
0380
0c80
7fe0
0900
7e00
1000
1000
3000
2000
2200
2200
2c00
3000
ENDCHAR
STARTCHAR yacute
ENCODING 253
SWIDTH 685 0
DWIDTH 10 0
BBX 8 9 1 0
ATTRIBUTES 029b
BITMAP
40
fc
02
02
02
02
02
02
ff
ENDCHAR
STARTCHAR thorn
ENCODING 254
SWIDTH 480 0
DWIDTH 7 0
BBX 6 9 0 0
ATTRIBUTES 01ce
BITMAP
40
70
10
10
08
08
18
28
c4
ENDCHAR
STARTCHAR ydiaeresis
ENCODING 255
SWIDTH 617 0
DWIDTH 9 0
BBX 8 9 1 0
ATTRIBUTES 025e
BITMAP
80
ff
04
04
04
04
04
04
04
ENDCHAR
ENDFONT
